PathFileType	4	(X/Y/Z)	Patient4_TMGait_0pt6_01_left_27.trc.trc
DataRate	CameraRate	NumFrames	NumMarkers	Units	OrigDataRate	OrigDataStartFrame	OrigNumFrames
85.365853658537	85.365853658537	6	33	mm	85.365853658537	106	       141
Frame#	Time	Sacral			L.Shoulder			Chest			R.Shoulder			Neck			R.ASIS			L.ASIS			R.Thigh.Superior			R.Thigh.Lateral			R.Thigh.Inferior			R.Patella			L.Thigh.Superior			L.Thigh.Lateral			L.Thigh.Inferior			L.Patella			L.Shank.Superior			L.Shank.Lateral			L.Shank.Inferior			R.Shank.Superior			R.Shank.Lateral			R.Shank.Inferior			R.Heel			R.Midfoot.Superior			R.Midfoot.Lateral			R.Toe			L.Heel			L.Midfoot.Lateral			L.Midfoot.Superior			L.Toe			L.Elbow			L.Wrist			R.Elbow			R.Wrist			
		X1	Y1	Z1	X2	Y2	Z2	X3	Y3	Z3	X4	Y4	Z4	X5	Y5	Z5	X6	Y6	Z6	X7	Y7	Z7	X8	Y8	Z8	X9	Y9	Z9	X10	Y10	Z10	X11	Y11	Z11	X12	Y12	Z12	X13	Y13	Z13	X14	Y14	Z14	X15	Y15	Z15	X16	Y16	Z16	X17	Y17	Z17	X18	Y18	Z18	X19	Y19	Z19	X20	Y20	Z20	X21	Y21	Z21	X22	Y22	Z22	X23	Y23	Z23	X24	Y24	Z24	X25	Y25	Z25	X26	Y26	Z26	X27	Y27	Z27	X28	Y28	Z28	X29	Y29	Z29	X30	Y30	Z30	X31	Y31	Z31	X32	Y32	Z32	X33	Y33	Z33	

106	34.100000000000	742.566242658393	1007.302929639464	529.350561259071	879.611335485967	1438.860012934955	339.451892874422	1007.321789352458	1371.243006250746	482.088365287183	949.286334745582	1437.756347951388	667.850548940020	884.314803683574	1497.154005801672	494.999191072190	979.471934452296	944.801588710050	622.480956746960	938.781598521807	967.841010590217	351.712829909609	995.898546500548	736.862645870496	587.751940729940	906.634577289365	633.831402120558	652.182777325984	969.792417873548	577.226425593402	567.274339663240	960.350346238331	491.878128021790	571.136713249823	1030.558439785776	791.463815586181	374.662917944425	989.257968457881	662.162161307007	297.561905033871	1097.589973087612	606.651221169635	352.441493740332	1122.912478022746	529.883270444588	343.716266813332	1087.591468608314	453.061461068617	337.612292955154	983.503800761550	348.900607589337	291.685450952255	1039.059267267074	229.486651318629	344.713602158319	932.114999636564	403.646986275847	576.235084573481	860.818688640904	298.720597062607	634.984877953442	900.959342876133	205.945467253294	567.791618755224	765.008372402862	41.900714680971	531.803482542867	935.895354132029	97.131784900246	568.624317566483	847.937308573894	36.389582042897	607.107812227146	1055.830248431984	45.676380526690	596.638579209245	910.585819098069	75.254816857158	388.805164997651	976.920576225577	69.381204593737	303.113722145844	1063.733564838161	129.835773031173	320.597929047625	1185.259417063184	75.908879961829	281.810811689378	822.812044836860	1081.031447283594	243.058387206241	856.882288427381	823.836387610104	240.057891815095	1046.167328819167	1100.566581091170	782.166551014734	1269.781770636199	972.646569575998	744.353210052215	
107	34.111714285714	741.827539426811	1007.177339100131	530.332175315597	878.541404750672	1438.103000120365	339.222918984931	1007.173926356506	1370.453622608544	481.014666110641	950.642059306507	1437.460509065511	667.059870398378	884.486486107600	1496.622034236444	494.532934002530	979.235669592661	944.131318361125	622.067812155718	937.183340863546	967.378448464923	351.385780146435	993.944016831548	735.867690992999	587.128324988348	904.300638529408	633.348790166346	652.212970027266	966.204340609299	576.410514819468	566.785324290462	956.086414000929	491.162669943800	570.658706750141	1028.574976901315	790.867138912218	375.204881135165	987.679999219737	661.831975046162	297.550979818031	1094.942619579681	605.990139297106	354.312523103999	1121.602069718496	531.685805781418	345.426341348573	1090.360185316337	455.268362357537	338.055303706035	993.998868576772	344.950217509052	290.155996795318	1056.900871700601	228.932650590373	343.016132879060	927.311419548764	402.996707433241	575.865814704088	855.787949294022	298.404363316990	634.985051803834	894.825914802206	205.483902645804	567.455115954516	757.945288218096	41.887798038632	531.785127817556	928.794505901577	96.948077238895	568.416132463026	840.866758453485	36.383282341749	607.113508673755	1048.782410085956	45.491889063289	596.644051036360	938.467677837758	66.595516105476	384.987922694599	1006.286174058083	64.933599210805	300.119379765255	1089.050799562313	130.478875921252	318.676429084931	1214.154392793492	83.979439658019	281.444196456713	814.279881148890	1081.411212014811	244.335683144180	838.177773796152	823.364537170351	241.939734037422	1054.048393125513	1103.252720718852	781.986992006324	1283.877915693033	988.238935188916	741.150395870164	
108	34.123428571429	741.229911298526	1006.979570386522	531.225905225454	877.608998075345	1437.354075674723	338.884404470356	1007.084800581348	1369.617823698450	479.868234148443	951.984779193035	1437.093565747873	666.167725502618	884.717106815215	1496.046419803786	493.979810939687	979.065572017312	943.445490846825	621.583930345973	935.682702707072	966.785104661771	350.958155879490	992.182004960475	734.850127592737	586.666019078123	902.068673236954	632.849693951418	652.235611124473	962.823840550121	575.572559482865	566.371469441020	952.011565994731	490.419821653978	570.227230378298	1026.353567834475	789.822613434439	375.609709104660	985.635293059639	661.205345333349	297.345239289136	1091.845083062063	604.916160935141	355.969271697605	1119.746938301951	533.123725468797	347.016352882802	1092.473990508288	457.373914471048	338.458975709887	1003.976901411239	341.467329526589	288.770189395641	1073.813403134943	229.273790547340	341.646765541083	922.650245171645	402.318127603257	575.530138533326	850.800203747531	298.107909087919	634.986477180524	888.725164870077	205.022086846110	567.163926806753	750.875417230689	41.886512041217	531.790732808143	921.701479037317	96.777674736348	568.229504912032	833.795116434629	36.378340070437	607.135142021264	1041.738769109834	45.317543658175	596.647827152642	965.473668254715	59.829494723356	381.745177652907	1034.694286462413	61.950749295227	297.819316311739	1113.304423043862	132.177197727178	317.289458912513	1241.497259876529	92.812277839370	281.994450498519	805.938944620824	1082.047639436573	245.381646510852	820.341535515316	823.563866883046	243.764405133722	1061.630442212136	1105.932277461864	781.581394304681	1296.834566469696	1003.995375494481	737.833260538228	
109	34.135142857143	740.807889587971	1006.717741010299	532.033039329048	876.804137313542	1436.634649675646	338.446343279014	1007.044537714187	1368.768780073092	478.663452551188	953.294196545351	1436.688585633391	665.187153957948	884.986610227675	1495.449521850555	493.340817861644	978.977439756802	942.751704291014	621.021008056452	934.287180073539	966.105643257279	350.441977903726	990.600807295410	733.813575113584	586.313163061718	899.933072071504	632.339935191669	652.219267847528	959.634333367800	574.713197894669	565.996572523242	948.111538066585	489.651481539342	569.808530067655	1023.962389423033	788.442090849943	375.856108262815	983.242802042960	660.349620836968	296.964019363440	1088.508848812624	603.581350083150	357.306160611867	1117.531266021482	534.265595049416	348.396028837813	1094.034073247352	459.368349240008	338.775776876766	1013.256092422911	338.503594283270	287.616710404414	1089.519552116337	230.414373051128	340.616967942556	918.124802908567	401.619214856023	575.203966082655	845.852169933339	297.841316647211	634.973953466265	882.656662190974	204.566514796541	566.906884054298	743.800813230019	41.900894632847	531.819125472487	914.620234334472	96.625611497172	568.072191356734	826.722883941227	36.375567286243	607.170670570840	1034.701440701651	45.149889070002	596.652272979793	991.028332570904	54.947122306186	379.231440618111	1061.529034892032	60.305037654303	296.296940455571	1136.037323288257	134.743719468873	316.425877450883	1266.812220199355	102.023581239558	283.319384170415	797.828729198819	1082.941525630578	246.216872250952	803.439586688318	824.353032675808	245.539005937183	1068.915603534896	1108.603566696371	780.925736919225	1308.645264450419	1019.786499365758	734.427220669800	
110	34.146857142857	740.584318105199	1006.399000058711	532.749110490286	876.108361401767	1435.959277921406	337.922263401494	1007.041681578950	1367.935867438990	477.413895471495	954.552622081360	1436.272860224633	664.132371694945	885.272711212146	1494.848907738916	492.619473909540	978.985132796632	942.053275276584	620.367212192833	933.005910339597	965.382655967063	349.841653447066	989.178582856671	732.760649798127	585.998204253605	897.890898008635	631.821794016948	652.131304812257	956.614052546261	573.832037420092	565.615634266283	944.369873439168	488.857586243204	569.366638223410	1021.496469436432	786.855599962979	375.923369054123	980.643943595062	659.327274008133	296.458984450268	1085.159252203951	602.131074898937	358.249226953721	1115.153294183192	535.169337978290	349.496509091323	1095.149478693129	461.218886307855	338.978008037626	1021.647190188380	336.061996470900	286.785602944663	1103.748633620828	232.176490768800	339.926779322663	913.726045994104	400.906481376727	574.862683704756	840.944155260031	297.611635024875	634.934762715960	876.619837017718	204.121708310418	566.670859869271	736.723885008105	41.934358808708	531.867288321499	907.554370086004	96.495265522648	567.949025209781	819.650594040561	36.375115580656	607.216714231620	1027.671663615875	44.983780242673	596.658466604200	1014.556790615612	51.800847793098	377.571044128753	1086.159408246835	59.772260193920	295.585500639632	1156.786661167374	137.908577335424	316.041093181957	1289.633179479300	111.163436758071	285.185488816179	789.993630611999	1084.078349615945	246.864568639061	787.521747400499	825.640042509560	247.265203228684	1075.903707719099	1111.262618360606	780.004957805466	1319.323433584063	1035.482137398213	730.959604299140	
111	34.158571428571	740.567412815824	1006.029438782806	533.362299761678	875.497260569578	1435.334791109641	337.327562643649	1007.064410251171	1367.142041966599	476.131214698844	955.746165755261	1435.865124313869	663.017648245574	885.552766240387	1494.255555550438	491.822110243962	979.098751716865	941.349338525469	619.610422600280	931.852239123050	964.651550371788	349.154954103113	987.887864770810	731.692917992134	585.642338208484	895.941089905464	631.294385139809	651.943018989941	953.740283622019	572.927338655768	565.183918383183	940.770574496482	488.035728482184	568.869697694956	1019.076083766406	785.200428518503	375.792330046735	977.992205041066	658.190800773588	295.905692549772	1082.014421954567	600.688749982232	358.762535596552	1112.809741141504	535.873167814279	350.276297400552	1095.927124629543	462.869044383814	339.065447827732	1028.972937370389	334.097815055000	286.353066589628	1116.248244986502	234.314079453801	339.573799989246	909.443701125730	400.183504135096	574.484888332479	836.079454713893	297.422226711538	634.860202237136	870.614359775880	203.689787130907	566.443309832290	729.647092136222	41.989060165625	531.931303758266	900.506828085998	96.388348010436	567.862280564006	812.578882065903	36.376588922808	607.269489778360	1020.649438237486	44.813236669676	596.666265934276	1035.513876771479	50.121914926306	376.843609867454	1107.980020825499	60.053166381230	295.668935844283	1175.109939240835	141.339751503080	316.073471876664	1309.531138159088	119.748543617474	287.315163718528	782.481155705449	1085.427968844527	247.348825656470	772.624782888494	827.325448003362	248.938895831987	1082.591684676491	1113.900594523936	778.814293985543	1328.899462452402	1050.952629252299	727.459125367552	
